{
  "accessors": [
    {
      "bufferView": 2,
      "componentType": 5126,
      "count": 2604,
      "max": [
        5.157688140869141,
        0.6931198239326477,
        1.4107437133789063
      ],
      "min": [
        -3.15928053855896,
        -0.6931198239326477,
        -2.3124501705169678
      ],
      "type": "VEC3"
    },
    {
      "bufferView": 2,
      "byteOffset": 31248,
      "componentType": 5126,
      "count": 2604,
      "max": [
        0.998177170753479,
        1.0,
        0.9999991059303284
      ],
      "min": [
        -0.9870247840881348,
        -1.0,
        -0.9989612102508545
      ],
      "type": "VEC3"
    },
    {
      "bufferView": 1,
      "componentType": 5126,
      "count": 2604,
      "max": [
        0.9227789044380188,
        0.7207333445549011
      ],
      "min": [
        0.23354719579219818,
        0.23706842958927155
      ],
      "type": "VEC2"
    },
    {
      "bufferView": 0,
      "componentType": 5125,
      "count": 9966,
      "type": "SCALAR"
    },
    {
      "bufferView": 2,
      "byteOffset": 62496,
      "componentType": 5126,
      "count": 6744,
      "max": [
        3.2572872638702393,
        0.7685725092887878,
        0.9535980224609375
      ],
      "min": [
        -0.9987533688545227,
        -0.7648674845695496,
        -0.34644511342048645
      ],
      "type": "VEC3"
    },
    {
      "bufferView": 2,
      "byteOffset": 143424,
      "componentType": 5126,
      "count": 6744,
      "max": [
        0.9988611936569214,
        0.9999814033508301,
        0.9978570938110352
      ],
      "min": [
        -0.9988612532615662,
        -0.9999871850013733,
        -0.9978570938110352
      ],
      "type": "VEC3"
    },
    {
      "bufferView": 1,
      "byteOffset": 20832,
      "componentType": 5126,
      "count": 6744,
      "max": [
        0.7632703185081482,
        0.6626695990562439
      ],
      "min": [
        0.3907344937324524,
        0.5275993943214417
      ],
      "type": "VEC2"
    },
    {
      "bufferView": 0,
      "byteOffset": 39864,
      "componentType": 5125,
      "count": 37248,
      "type": "SCALAR"
    }
  ],
  "asset": {
    "extras": {
      "author": "Šimon Ustal (https://sketchfab.com/simonustal)",
      "license": "CC-BY-4.0 (http://creativecommons.org/licenses/by/4.0/)",
      "source": "https://sketchfab.com/3d-models/titmouse-animals-6ce2b75341b94f68b9983182c63651c1",
      "title": "Titmouse - Animals"
    },
    "generator": "Sketchfab-12.68.0",
    "version": "2.0"
  },
  "bufferViews": [
    {
      "buffer": 0,
      "byteLength": 188856,
      "name": "floatBufferViews",
      "target": 34963
    },
    {
      "buffer": 0,
      "byteLength": 74784,
      "byteOffset": 188856,
      "byteStride": 8,
      "name": "floatBufferViews",
      "target": 34962
    },
    {
      "buffer": 0,
      "byteLength": 224352,
      "byteOffset": 263640,
      "byteStride": 12,
      "name": "floatBufferViews",
      "target": 34962
    }
  ],
  "buffers": [
    {
      "byteLength": 487992,
      "uri": "scene.bin"
    }
  ],
  "images": [
    {
      "uri": "textures/Material.001_baseColor.jpeg"
    },
    {
      "uri": "textures/Material.001_metallicRoughness.png"
    }
  ],
  "materials": [
    {
      "doubleSided": true,
      "name": "Material.001",
      "occlusionTexture": {
        "index": 1
      },
      "pbrMetallicRoughness": {
        "baseColorTexture": {
          "index": 0
        },
        "metallicFactor": 0.0,
        "metallicRoughnessTexture": {
          "index": 1
        },
        "roughnessFactor": 0.8211145618
      }
    },
    {
      "doubleSided": true,
      "name": "Material.002",
      "occlusionTexture": {
        "index": 1
      },
      "pbrMetallicRoughness": {
        "baseColorTexture": {
          "index": 0
        },
        "metallicFactor": 0.0,
        "metallicRoughnessTexture": {
          "index": 1
        },
        "roughnessFactor": 0.8706063148678475
      }
    }
  ],
  "meshes": [
    {
      "name": "Cube_Material.001_0",
      "primitives": [
        {
          "attributes": {
            "NORMAL": 1,
            "POSITION": 0,
            "TEXCOORD_0": 2
          },
          "indices": 3,
          "material": 0,
          "mode": 4
        }
      ]
    },
    {
      "name": "Cube_Material.002_0",
      "primitives": [
        {
          "attributes": {
            "NORMAL": 5,
            "POSITION": 4,
            "TEXCOORD_0": 6
          },
          "indices": 7,
          "material": 1,
          "mode": 4
        }
      ]
    }
  ],
  "nodes": [
    {
      "children": [
        1
      ],
      "matrix": [
        1.0,
        0.0,
        0.0,
        0.0,
        0.0,
        2.220446049250313e-16,
        -1.0,
        0.0,
        0.0,
        1.0,
        2.220446049250313e-16,
        0.0,
        0.0,
        0.0,
        0.0,
        1.0
      ],
      "name": "Sketchfab_model"
    },
    {
      "children": [
        2
      ],
      "matrix": [
        1.0,
        0.0,
        0.0,
        0.0,
        0.0,
        0.0,
        1.0,
        0.0,
        0.0,
        -1.0,
        0.0,
        0.0,
        0.0,
        0.0,
        0.0,
        1.0
      ],
      "name": "5e517e03d0454d5b93f8c35524b272c3.fbx"
    },
    {
      "children": [
        3,
        6,
        8,
        11,
        13,
        16,
        18
      ],
      "name": "RootNode"
    },
    {
      "children": [
        4
      ],
      "matrix": [
        -29.08647719990347,
        -5.518906457566863,
        -95.51711910171437,
        0.0,
        56.63930913109449,
        79.46723428563203,
        -21.83912397841966,
        0.0,
        77.11008775993375,
        -60.45246356562044,
        -19.98834696773717,
        0.0,
        407.6245422363281,
        590.38623046875,
        -100.54539489746094,
        1.0
      ],
      "name": "Light"
    },
    {
      "children": [
        5
      ],
      "matrix": [
        1.0,
        0.0,
        0.0,
        0.0,
        0.0,
        2.220446049250313e-16,
        1.0,
        0.0,
        0.0,
        -1.0,
        2.220446049250313e-16,
        0.0,
        0.0,
        0.0,
        0.0,
        1.0
      ],
      "name": "Object_4"
    },
    {
      "name": "Object_5"
    },
    {
      "children": [
        7
      ],
      "matrix": [
        -65.15583280329096,
        -44.52713576570858,
        -61.41703047373549,
        0.0,
        -32.40134137821245,
        89.53957451233616,
        -30.542088974418615,
        0.0,
        68.59205472129975,
        -1.0718647115348782e-05,
        -72.7676336239627,
        0.0,
        735.88916015625,
        495.8309326171875,
        692.5791015625,
        1.0
      ],
      "name": "Camera"
    },
    {
      "name": "Object_7"
    },
    {
      "children": [
        9
      ],
      "matrix": [
        -29.086464451752825,
        -5.518900446507607,
        -95.51711534357838,
        0.0,
        56.63932116211723,
        79.46722801901794,
        -21.839115578886208,
        0.0,
        77.11007701143383,
        -60.452467701511644,
        -19.98833775504079,
        0.0,
        407.6245422363281,
        590.38623046875,
        -100.54539489746094,
        1.0
      ],
      "name": "Light.001"
    },
    {
      "children": [
        10
      ],
      "matrix": [
        1.0,
        0.0,
        0.0,
        0.0,
        0.0,
        2.220446049250313e-16,
        1.0,
        0.0,
        0.0,
        -1.0,
        2.220446049250313e-16,
        0.0,
        0.0,
        0.0,
        0.0,
        1.0
      ],
      "name": "Object_9"
    },
    {
      "name": "Object_10"
    },
    {
      "children": [
        12
      ],
      "matrix": [
        -65.15583048631922,
        -44.52712848496765,
        -61.41702578798792,
        0.0,
        -32.401335185591705,
        89.53956278095312,
        -30.542079976777014,
        0.0,
        68.592052790029,
        -9.470078337315971e-06,
        -72.76763544441263,
        0.0,
        735.88916015625,
        495.8309326171875,
        692.5791015625,
        1.0
      ],
      "name": "Camera.001"
    },
    {
      "name": "Object_12"
    },
    {
      "children": [
        14
      ],
      "matrix": [
        -29.08646815115745,
        -5.518893065967794,
        -95.51712263095595,
        0.0,
        56.63930625770073,
        79.46722232091875,
        -21.83910509811415,
        0.0,
        77.11008105261651,
        -60.45245996435221,
        -19.988345565315242,
        0.0,
        407.6245422363281,
        590.38623046875,
        -100.54539489746094,
        1.0
      ],
      "name": "Light.002"
    },
    {
      "children": [
        15
      ],
      "matrix": [
        1.0,
        0.0,
        0.0,
        0.0,
        0.0,
        2.220446049250313e-16,
        1.0,
        0.0,
        0.0,
        -1.0,
        2.220446049250313e-16,
        0.0,
        0.0,
        0.0,
        0.0,
        1.0
      ],
      "name": "Object_14"
    },
    {
      "name": "Object_15"
    },
    {
      "children": [
        17
      ],
      "matrix": [
        -65.15583579436607,
        -44.52712071778707,
        -61.41702578798792,
        0.0,
        -32.40132655584627,
        89.53956664349312,
        -30.54207780813248,
        0.0,
        68.592046591234,
        -1.4978400038483453e-05,
        -72.76763080290701,
        0.0,
        735.88916015625,
        495.8309326171875,
        692.5791015625,
        1.0
      ],
      "name": "Camera.002"
    },
    {
      "name": "Object_17"
    },
    {
      "children": [
        19,
        20
      ],
      "matrix": [
        30.61586911364174,
        0.18058178160319105,
        1.9401076113964427e-07,
        0.0,
        2.7206988754730726e-07,
        -1.8018224277420817e-06,
        -41.25688552856441,
        0.0,
        -0.18058174785338862,
        30.615863391695346,
        -1.3382852189122726e-06,
        0.0,
        -7.282093048095703,
        64.28128814697266,
        0.3542257845401764,
        1.0
      ],
      "name": "Cube"
    },
    {
      "mesh": 0,
      "name": "Cube_Material.001_0"
    },
    {
      "mesh": 1,
      "name": "Cube_Material.002_0"
    }
  ],
  "samplers": [
    {
      "magFilter": 9729,
      "minFilter": 9987,
      "wrapS": 10497,
      "wrapT": 10497
    }
  ],
  "scene": 0,
  "scenes": [
    {
      "name": "Sketchfab_Scene",
      "nodes": [
        0
      ]
    }
  ],
  "textures": [
    {
      "sampler": 0,
      "source": 0
    },
    {
      "sampler": 0,
      "source": 1
    }
  ]
}
