{"accessors":[{"bufferView":2,"componentType":5126,"count":2599,"max":[1,1,0.9980270266532898],"min":[-1.0000005960464478,-1,-0.9980275630950928],"type":"VEC3"},{"bufferView":2,"byteOffset":31188,"componentType":5126,"count":2599,"max":[1,1,0.9980268478393555],"min":[-1,-1,-0.9980267882347107],"type":"VEC3"},{"bufferView":1,"componentType":5126,"count":2599,"max":[0.9999995827674866,1],"min":[0,0],"type":"VEC2"},{"bufferView":1,"byteOffset":20792,"componentType":5126,"count":2599,"max":[0.9999995827674866,1],"min":[0,0],"type":"VEC2"},{"bufferView":1,"byteOffset":41584,"componentType":5126,"count":2599,"max":[0.9999995827674866,1],"min":[0,0],"type":"VEC2"},{"bufferView":0,"componentType":5125,"count":14700,"type":"SCALAR"}],"asset":{"extras":{"author":"rondinellimorais (https://sketchfab.com/rondinellimorais)","license":"CC-BY-4.0 (http://creativecommons.org/licenses/by/4.0/)","source":"https://sketchfab.com/3d-models/jabulani-7ae489b78e114ac290ffbd989729f4a4","title":"Jabulani"},"generator":"Sketchfab-12.68.0","version":"2.0"},"bufferViews":[{"buffer":0,"byteLength":58800,"name":"floatBufferViews","target":34963},{"buffer":0,"byteLength":62376,"byteOffset":58800,"byteStride":8,"name":"floatBufferViews","target":34962},{"buffer":0,"byteLength":62376,"byteOffset":121176,"byteStride":12,"name":"floatBufferViews","target":34962}],"buffers":[{"byteLength":183552,"uri":"data:application/octet-stream;base64,"}],"images":[{"uri":"data:application/octet-stream;base64,"}],"materials":[{"doubleSided":true,"name":"JABULANI","pbrMetallicRoughness":{"baseColorTexture":{"index":0},"metallicFactor":0,"roughnessFactor":0.6}}],"meshes":[{"name":"pSphere1_JABULANI_0","primitives":[{"attributes":{"NORMAL":1,"POSITION":0,"TEXCOORD_0":2,"TEXCOORD_1":3,"TEXCOORD_2":4},"indices":5,"material":0,"mode":4}]}],"nodes":[{"children":[1],"matrix":[1,0,0,0,0,2.220446049250313e-16,-1,0,0,1,2.220446049250313e-16,0,0,0,0,1],"name":"Sketchfab_model"},{"children":[2],"matrix":[1,0,0,0,0,0,1,0,0,-1,0,0,0,0,0,1],"name":"Jabulani.fbx"},{"children":[3],"name":"RootNode"},{"children":[4],"matrix":[-6.791113328109884,7.136210612484751,-0.6481454054754355,0,0.6686515980860175,-0.257979507003962,-9.84637833022648,0,-7.134318426644267,-6.817093169074089,-0.30586912073315986,0,0,11.433774948120117,0,1],"name":"pSphere1"},{"mesh":0,"name":"pSphere1_JABULANI_0"}],"samplers":[{"magFilter":9729,"minFilter":9987,"wrapS":10497,"wrapT":10497}],"scene":0,"scenes":[{"name":"Sketchfab_Scene","nodes":[0]}],"textures":[{"sampler":0,"source":0}]}